<svg xmlns="http://www.w3.org/2000/svg" xmlns:xlink="http://www.w3.org/1999/xlink" width="567" height="557" viewBox="0 0 567 557">
  <defs>
    <linearGradient id="linear-gradient" x1="0.5" x2="0.5" y2="1" gradientUnits="objectBoundingBox">
      <stop offset="0" stop-color="#1487fd"/>
      <stop offset="1" stop-color="#42a0ff"/>
    </linearGradient>
  </defs>
  <g id="bg" transform="translate(-89.5 -1169.557)">
    <g id="Path_5421" data-name="Path 5421" transform="translate(99.5 1169.557)" fill="#fff" opacity="0.3">
      <path d="M 278.5 556.5 C 259.6377258300781 556.5 240.7874298095703 554.5997314453125 222.4727783203125 550.8519897460938 C 204.623779296875 547.1995849609375 187.0670013427734 541.7496337890625 170.2899932861328 534.653564453125 C 153.8175048828125 527.686279296875 137.9296417236328 519.0626220703125 123.0679321289063 509.0222778320313 C 108.3472137451172 499.0771484375 94.50450134277344 487.6558532714844 81.92428588867188 475.0757141113281 C 69.34413909912109 462.4955139160156 57.92285537719727 448.6527709960938 47.97771453857422 433.9320678710938 C 37.93735885620117 419.0703430175781 29.3137149810791 403.1824951171875 22.34642791748047 386.7099914550781 C 15.25035667419434 369.9330139160156 9.80042839050293 352.376220703125 6.14799976348877 334.5272216796875 C 2.400285720825195 316.2125854492188 0.5 297.3622741699219 0.5 278.5 C 0.5 259.6377258300781 2.400285720825195 240.7874298095703 6.14799976348877 222.4727783203125 C 9.80042839050293 204.623779296875 15.25035667419434 187.0670013427734 22.34642791748047 170.2899932861328 C 29.3137149810791 153.8175048828125 37.93735885620117 137.9296417236328 47.97771453857422 123.0679321289063 C 57.92285537719727 108.3472137451172 69.34413909912109 94.50450134277344 81.92428588867188 81.92428588867188 C 94.50450134277344 69.34413909912109 108.3472137451172 57.92285537719727 123.0679321289063 47.97771453857422 C 137.9296417236328 37.93735885620117 153.8175048828125 29.3137149810791 170.2899932861328 22.34642791748047 C 187.0670013427734 15.25035667419434 204.623779296875 9.80042839050293 222.4727783203125 6.14799976348877 C 240.7874298095703 2.400285720825195 259.6377258300781 0.5 278.5 0.5 C 309.5274963378906 0.5 339.9951477050781 5.574785709381104 369.0564880371094 15.5833568572998 C 383.1000061035156 20.41985702514648 396.8655090332031 26.44571495056152 409.970703125 33.49371337890625 C 422.9219970703125 40.45885848999023 435.4264221191406 48.52828598022461 447.1366577148438 57.47785568237305 C 458.7822875976563 66.37807464599609 469.8136291503906 76.27935791015625 479.9243469238281 86.90663909912109 C 490.0458679199219 97.54535675048828 499.3921508789063 109.0667114257813 507.7036437988281 121.1507110595703 C 516.07861328125 133.3269348144531 523.5279541015625 146.2565002441406 529.8446655273438 159.5803527832031 C 536.2485961914063 173.0882110595703 541.5890502929688 187.21435546875 545.7176513671875 201.5664215087891 C 547.9193115234375 209.2200775146484 549.8102416992188 217.0739288330078 551.3378295898438 224.9097137451172 C 552.888427734375 232.8631439208984 554.1134033203125 241.0474243164063 554.9786987304688 249.2352905273438 C 555.9881591796875 258.7836303710938 556.5 268.6296997070313 556.5 278.5 C 556.5 297.3622741699219 554.5997314453125 316.2125854492188 550.8519897460938 334.5272216796875 C 547.1995849609375 352.376220703125 541.7496337890625 369.9330139160156 534.653564453125 386.7099914550781 C 527.686279296875 403.1824951171875 519.0626220703125 419.0703430175781 509.0222778320313 433.9320678710938 C 499.0771484375 448.6527709960938 487.6558532714844 462.4955139160156 475.0757141113281 475.0757141113281 C 462.4955139160156 487.6558532714844 448.6527709960938 499.0771484375 433.9320678710938 509.0222778320313 C 419.0703430175781 519.0626220703125 403.1824951171875 527.686279296875 386.7099914550781 534.653564453125 C 369.9330139160156 541.7496337890625 352.376220703125 547.1995849609375 334.5272216796875 550.8519897460938 C 316.2125854492188 554.5997314453125 297.3622741699219 556.5 278.5 556.5 Z" stroke="none"/>
      <path d="M 278.5 1 C 259.6713562011719 1 240.8547973632813 2.8968505859375 222.572998046875 6.63787841796875 C 204.75634765625 10.28363037109375 187.2313537597656 15.72369384765625 170.4847717285156 22.80694580078125 C 154.0419921875 29.76165771484375 138.182861328125 38.36968994140625 123.3477783203125 48.39205932617188 C 108.6535034179688 58.31936645507813 94.8355712890625 69.72021484375 82.27786254882813 82.27786254882813 C 69.72021484375 94.8355712890625 58.31936645507813 108.6535034179688 48.39205932617188 123.3477783203125 C 38.36968994140625 138.182861328125 29.76165771484375 154.0419921875 22.80694580078125 170.4847717285156 C 15.72369384765625 187.2313537597656 10.28363037109375 204.75634765625 6.63787841796875 222.572998046875 C 2.8968505859375 240.8547973632813 1 259.6713562011719 1 278.5 C 1 297.3286437988281 2.8968505859375 316.1452026367188 6.63787841796875 334.427001953125 C 10.28363037109375 352.24365234375 15.72369384765625 369.7686462402344 22.80694580078125 386.5151977539063 C 29.76165771484375 402.9580078125 38.36968994140625 418.817138671875 48.39205932617188 433.6522216796875 C 58.31936645507813 448.3464965820313 69.72021484375 462.1644287109375 82.27786254882813 474.7221374511719 C 94.8355712890625 487.27978515625 108.6535034179688 498.6806335449219 123.3477783203125 508.6079406738281 C 138.182861328125 518.6303100585938 154.0419921875 527.2383422851563 170.4847717285156 534.1930541992188 C 187.2313537597656 541.2763061523438 204.75634765625 546.7163696289063 222.572998046875 550.3621215820313 C 240.8547973632813 554.1031494140625 259.6713562011719 556 278.5 556 C 297.3286437988281 556 316.1452026367188 554.1031494140625 334.427001953125 550.3621215820313 C 352.24365234375 546.7163696289063 369.7686462402344 541.2763061523438 386.5151977539063 534.1930541992188 C 402.9580078125 527.2383422851563 418.817138671875 518.6303100585938 433.6522216796875 508.6079406738281 C 448.3464965820313 498.6806335449219 462.1644287109375 487.27978515625 474.7221374511719 474.7221374511719 C 487.27978515625 462.1644287109375 498.6806335449219 448.3464965820313 508.6079406738281 433.6522216796875 C 518.6303100585938 418.817138671875 527.2383422851563 402.9580078125 534.1930541992188 386.5151977539063 C 541.2763061523438 369.7686462402344 546.7163696289063 352.24365234375 550.3621215820313 334.427001953125 C 554.1031494140625 316.1452026367188 556 297.3286437988281 556 278.5 C 556 268.647216796875 555.4890747070313 258.81884765625 554.4815063476563 249.2877197265625 C 553.6177368164063 241.1143493652344 552.3949584960938 232.9446411132813 550.84716796875 225.00537109375 C 549.322265625 217.1838684082031 547.434814453125 209.3443603515625 545.2371215820313 201.7045593261719 C 541.1160278320313 187.3785095214844 535.7852172851563 173.2779235839844 529.3928833007813 159.7944946289063 C 523.0875244140625 146.49462890625 515.6515502929688 133.5882873535156 507.2917175292969 121.4339904785156 C 498.9950561523438 109.3716430664063 489.6654968261719 97.87094116210938 479.5620727539063 87.25128173828125 C 469.469482421875 76.64291381835938 458.4578552246094 66.75936889648438 446.8330688476563 57.87506103515625 C 435.1438598632813 48.94155883789063 422.6619262695313 40.88665771484375 409.7338562011719 33.93402099609375 C 396.65234375 26.8988037109375 382.9117126464844 20.8837890625 368.8936462402344 16.05609130859375 C 339.884765625 6.0655517578125 309.4719848632813 1 278.5 1 M 278.5 0 C 405.5480651855469 0 512.7265625 85.07208251953125 546.1981201171875 201.4281311035156 C 550.596923828125 216.7195739746094 553.721435546875 232.5809326171875 555.4759521484375 249.1826477050781 C 556.4719848632813 258.6044311523438 557 268.4905700683594 557 278.5 C 557 432.311279296875 432.311279296875 557 278.5 557 C 124.688720703125 557 0 432.311279296875 0 278.5 C 0 124.688720703125 124.688720703125 0 278.5 0 Z" stroke="none" fill="#ccc"/>
    </g>
    <g id="Ellipse_58" data-name="Ellipse 58" transform="translate(187.5 1257.557)" fill="#fff" stroke="#ccc" stroke-width="1" opacity="0.3">
      <circle cx="190.5" cy="190.5" r="190.5" stroke="none"/>
      <circle cx="190.5" cy="190.5" r="190" fill="none"/>
    </g>
    <g id="Group_4462" data-name="Group 4462" transform="translate(609.039 1314.178)">
      <g id="Ellipse_60" data-name="Ellipse 60" transform="translate(10.461 10.379)" fill="none" stroke="#e8e8e8" stroke-width="1">
        <circle cx="13" cy="13" r="13" stroke="none"/>
        <circle cx="13" cy="13" r="12.5" fill="none"/>
      </g>
      <g id="Ellipse_61" data-name="Ellipse 61" transform="translate(0.461 0.379)" fill="none" stroke="#e8e8e8" stroke-width="1">
        <circle cx="23.5" cy="23.5" r="23.5" stroke="none"/>
        <circle cx="23.5" cy="23.5" r="23" fill="none"/>
      </g>
      <circle id="Ellipse_59" data-name="Ellipse 59" cx="5" cy="5" r="5" transform="translate(18.461 18.379)" fill="url(#linear-gradient)"/>
    </g>
    <g id="Group_4463" data-name="Group 4463" transform="translate(90 1507.787)">
      <g id="Ellipse_60-2" data-name="Ellipse 60" transform="translate(10.5 10.77)" fill="none" stroke="#e8e8e8" stroke-width="1">
        <ellipse cx="13" cy="12.5" rx="13" ry="12.5" stroke="none"/>
        <ellipse cx="13" cy="12.5" rx="12.5" ry="12" fill="none"/>
      </g>
      <g id="Ellipse_61-2" data-name="Ellipse 61" transform="translate(-0.5 -0.23)" fill="none" stroke="#e8e8e8" stroke-width="1">
        <circle cx="23.5" cy="23.5" r="23.5" stroke="none"/>
        <circle cx="23.5" cy="23.5" r="23" fill="none"/>
      </g>
      <ellipse id="Ellipse_59-2" data-name="Ellipse 59" cx="5" cy="5.5" rx="5" ry="5.5" transform="translate(18.5 17.77)" fill="#fb0"/>
    </g>
  </g>
</svg>
