<svg id="iPhone_X_-_Light" data-name="iPhone X - Light" xmlns="http://www.w3.org/2000/svg" xmlns:xlink="http://www.w3.org/1999/xlink" width="295.299" height="612.364" viewBox="0 0 295.299 612.364">
  <defs>
    <linearGradient id="linear-gradient" x1="0.5" x2="0.5" y2="1" gradientUnits="objectBoundingBox">
      <stop offset="0" stop-color="#f6f6f6"/>
      <stop offset="1" stop-color="#ececec"/>
    </linearGradient>
    <linearGradient id="linear-gradient-2" x1="0.5" x2="0.5" y2="1" gradientUnits="objectBoundingBox">
      <stop offset="0" stop-color="#fff"/>
      <stop offset="1" stop-color="#f3f3f3"/>
    </linearGradient>
    <linearGradient id="linear-gradient-3" x1="0.5" x2="0.5" y2="1" gradientUnits="objectBoundingBox">
      <stop offset="0" stop-color="#f3f3f3"/>
      <stop offset="1" stop-color="#fff"/>
    </linearGradient>
  </defs>
  <path id="Bezel" d="M34.1,0H261.2a34.1,34.1,0,0,1,34.1,34.1V578.263a34.1,34.1,0,0,1-34.1,34.1H34.1A34.1,34.1,0,0,1,0,578.263V34.1A34.1,34.1,0,0,1,34.1,0Z" transform="translate(0 0)" fill="url(#linear-gradient)"/>
  <path id="Glass" d="M32.244,0H260.152A32.161,32.161,0,0,1,292.4,32.077V577.384a32.161,32.161,0,0,1-32.244,32.077H32.244A32.161,32.161,0,0,1,0,577.384V32.077A32.161,32.161,0,0,1,32.244,0Z" transform="translate(1.451 1.451)" fill="url(#linear-gradient-2)"/>
  <g id="Camera" transform="translate(179.694 12.566)">
    <ellipse id="Ellipse_7" data-name="Ellipse 7" cx="5.115" cy="5.115" rx="5.115" ry="5.115" transform="translate(0 0)" fill="url(#linear-gradient-3)"/>
    <circle id="Ellipse_8" data-name="Ellipse 8" cx="4.604" cy="4.604" r="4.604" transform="translate(0 0)" fill="url(#linear-gradient-2)"/>
    <ellipse id="Ellipse_10" data-name="Ellipse 10" cx="3.581" cy="3.581" rx="3.581" ry="3.581" transform="translate(1.023 1.023)" fill="#f3f3f3"/>
    <circle id="Ellipse_9" data-name="Ellipse 9" cx="1.023" cy="1.023" r="1.023" transform="translate(4.092 1.023)" fill="#fff"/>
  </g>
  <path id="Ear_Piece" data-name="Ear Piece" d="M3.039.5H42.945a2.539,2.539,0,0,1,0,5.079H3.039A2.539,2.539,0,1,1,3.039.5Z" transform="translate(124.657 15.099)" fill="#f3f3f3" stroke="#f9f8f8" stroke-width="1"/>
  <path id="Screen" d="M244.51,589.146H27.571A27.6,27.6,0,0,1,0,561.575v-534A27.6,27.6,0,0,1,27.571,0H56.784a4.942,4.942,0,0,1,3.795,3.751c.119.525.244,1.212.388,2.007.278,1.53.623,3.428,1.136,5.346.664,2.481,3.595,10.584,13.444,10.686,3.715.038,26.877.046,45.653.046,34.54,0,74.173-.027,76.028-.046,9.849-.1,12.78-8.2,13.444-10.686.514-1.922.86-3.822,1.137-5.35.145-.8.269-1.481.388-2A4.783,4.783,0,0,1,215.958,0H244.51a27.6,27.6,0,0,1,27.571,27.571v534A27.6,27.6,0,0,1,244.51,589.146Z" transform="translate(11.609 11.609)" fill="#e3e3e3"/>
  <path id="Image_Place_here" data-name="Image Place here" d="M244.51,589.146H27.571A27.6,27.6,0,0,1,0,561.575v-534A27.6,27.6,0,0,1,27.571,0H56.784a4.942,4.942,0,0,1,3.795,3.751c.119.525.244,1.212.388,2.007.278,1.53.623,3.428,1.136,5.346.664,2.481,3.595,10.584,13.444,10.686,3.715.038,26.877.046,45.653.046,34.54,0,74.173-.027,76.028-.046,9.849-.1,12.78-8.2,13.444-10.686.514-1.922.86-3.822,1.137-5.35.145-.8.269-1.481.388-2A4.783,4.783,0,0,1,215.958,0H244.51a27.6,27.6,0,0,1,27.571,27.571v534A27.6,27.6,0,0,1,244.51,589.146Z" transform="translate(11.609 11.609)" fill="#e3e3e3"/>
  <path id="Home" d="M1.814,0H92.508a1.814,1.814,0,1,1,0,3.628H1.814A1.814,1.814,0,1,1,1.814,0Z" transform="translate(100.851 588.42)" fill="#e2e2e2"/>
</svg>
